<svg xmlns="http://www.w3.org/2000/svg" width="1440" height="719" viewBox="0 0 1440 719"><rect width="100%" height="100%" fill="#DDDDDD"/><path fill="#999999" d="M351.16 404.965h21.97v15.63h-67.6v-15.63h24.76v-71.24q0-4.22.25-8.7l-17.57 14.7q-1.52 1.19-3 1.48-1.48.3-2.79.04-1.31-.25-2.33-.88-1.01-.64-1.52-1.4l-6.59-9.04 37.27-31.69h17.15v106.73Zm55.52-30.42h37.18v-39.97q0-5.66.76-12.51l-37.94 52.48Zm55.34 0h15.38v12.08q0 1.69-1.09 2.92-1.1 1.22-3.13 1.22h-11.16v29.83h-18.16v-29.83h-51.55q-2.11 0-3.72-1.31-1.6-1.31-2.02-3.25l-2.2-10.56 57.88-77.32h19.77v76.22Zm42.68 0h37.18v-39.97q0-5.66.76-12.51l-37.94 52.48Zm55.34 0h15.38v12.08q0 1.69-1.09 2.92-1.1 1.22-3.13 1.22h-11.16v29.83h-18.16v-29.83h-51.55q-2.11 0-3.72-1.31-1.6-1.31-2.02-3.25l-2.2-10.56 57.88-77.32h19.77v76.22Zm113.49-15.04q0 15.97-3.42 27.75-3.43 11.79-9.47 19.48-6.04 7.69-14.28 11.45-8.24 3.76-17.79 3.76-9.54 0-17.7-3.76-8.15-3.76-14.15-11.45-6-7.69-9.38-19.48-3.38-11.78-3.38-27.75 0-16.06 3.38-27.8 3.38-11.75 9.38-19.44 6-7.69 14.15-11.45 8.16-3.76 17.7-3.76 9.55 0 17.79 3.76 8.24 3.76 14.28 11.45 6.04 7.69 9.47 19.44 3.42 11.74 3.42 27.8Zm-21.55 0q0-13.27-1.94-21.97-1.95-8.71-5.2-13.86-3.25-5.16-7.48-7.23-4.22-2.07-8.79-2.07-4.47 0-8.66 2.07-4.18 2.07-7.39 7.23-3.21 5.15-5.11 13.86-1.9 8.7-1.9 21.97 0 13.26 1.9 21.97 1.9 8.7 5.11 13.85 3.21 5.16 7.39 7.23 4.19 2.07 8.66 2.07 4.57 0 8.79-2.07 4.23-2.07 7.48-7.23 3.25-5.15 5.2-13.85 1.94-8.71 1.94-21.97Zm155.73 33.12-11.07 10.9-28.64-28.64-28.9 28.81-11.07-10.9 28.9-28.98-27.55-27.55 10.99-10.99 27.54 27.55 27.38-27.38 11.16 10.99-27.47 27.46 28.73 28.73Zm58.06-94.22h84.41v9.04q0 4.06-.84 6.55-.85 2.5-1.69 4.19l-46.31 95.31q-1.44 2.96-4.06 5.03-2.62 2.07-7.01 2.07h-15.12l47.23-93.37q1.61-2.88 3.17-5.28 1.56-2.41 3.51-4.61h-58.48q-1.94 0-3.38-1.44-1.43-1.43-1.43-3.38v-14.11Zm155.64 106.56h21.97v15.63h-67.6v-15.63h24.76v-71.24q0-4.22.26-8.7l-17.58 14.7q-1.52 1.19-3 1.48-1.48.3-2.79.04-1.31-.25-2.32-.88-1.02-.64-1.52-1.4l-6.59-9.04 37.26-31.69h17.15v106.73Zm60.42-69.88q0 10.22 5.28 15.59 5.28 5.36 15 5.36 5.07 0 9.04-1.6 3.98-1.61 6.68-4.4 2.7-2.79 4.1-6.59 1.39-3.8 1.39-8.19 0-4.99-1.52-8.92-1.52-3.93-4.31-6.63-2.79-2.71-6.63-4.14-3.85-1.44-8.41-1.44-4.73 0-8.53 1.56-3.81 1.57-6.51 4.35-2.7 2.79-4.14 6.64-1.44 3.84-1.44 8.41Zm-10.22 85.51 37.94-47.4q1.43-1.78 2.7-3.47 1.27-1.69 2.45-3.38-4.22 2.7-9.29 4.1-5.07 1.39-10.65 1.39-6.34 0-12.42-2.19-6.08-2.2-10.82-6.64-4.73-4.43-7.64-10.98-2.92-6.55-2.92-15.34 0-8.2 3.04-15.38 3.04-7.18 8.54-12.59 5.49-5.41 13.18-8.53 7.69-3.13 16.98-3.13 9.38 0 16.86 2.96 7.48 2.96 12.76 8.28 5.28 5.32 8.11 12.76 2.83 7.43 2.83 16.31 0 5.66-.97 10.73t-2.74 9.76q-1.78 4.69-4.31 9.17-2.54 4.48-5.67 8.87l-27.96 39.88q-1.44 2.03-4.31 3.43-2.88 1.39-6.51 1.39h-19.18Z"/></svg>