<svg style="display:none" xmlns="http://www.w3.org/2000/svg" xmlns:xlink="http://www.w3.org/1999/xlink" version="1.1">
	<symbol id="search" xmlns="http://www.w3.org/2000/svg" width="21" height="22" viewBox="0 0 21 22" fill="none"><path d="M19.25 19.75L15.3125 15.8125M17.5 10.125C17.5 14.4742 13.9742 18 9.625 18C5.27576 18 1.75 14.4742 1.75 10.125C1.75 5.77576 5.27576 2.25 9.625 2.25C13.9742 2.25 17.5 5.77576 17.5 10.125Z" stroke="white" stroke-width="2" stroke-linecap="round"/></symbol>
	<symbol id="search-drawer" xmlns="http://www.w3.org/2000/svg" width="21" height="22" viewBox="0 0 21 22" fill="none"><path xmlns="http://www.w3.org/2000/svg" d="M19.25 19.75L15.3125 15.8125M17.5 10.125C17.5 14.4742 13.9742 18 9.625 18C5.27576 18 1.75 14.4742 1.75 10.125C1.75 5.77576 5.27576 2.25 9.625 2.25C13.9742 2.25 17.5 5.77576 17.5 10.125Z" stroke="#888888" stroke-width="2" stroke-linecap="round"/></symbol>
	<symbol id="shopping_bag" xmlns="http://www.w3.org/2000/svg" width="20" height="18" viewBox="0 0 20 18" fill="none"><path d="M1.24927 1H1.85558C2.87621 1 3.7331 1.7685 3.84379 2.78311L4.65475 10.2169C4.76543 11.2315 5.62233 12 6.64295 12H15.2953C16.2095 12 17.0074 11.3801 17.2333 10.4942L18.6353 3.18306C18.6944 2.87477 18.4582 2.58889 18.1443 2.58889H3.81298M4.87402 15.6249H5.62402M4.87402 16.3749H5.62402M15.874 15.6249H16.624M15.874 16.3749H16.624M6.24927 16C6.24927 16.5523 5.80155 17 5.24927 17C4.69698 17 4.24927 16.5523 4.24927 16C4.24927 15.4477 4.69698 15 5.24927 15C5.80155 15 6.24927 15.4477 6.24927 16ZM17.2493 16C17.2493 16.5523 16.8016 17 16.2493 17C15.697 17 15.2493 16.5523 15.2493 16C15.2493 15.4477 15.697 15 16.2493 15C16.8016 15 17.2493 15.4477 17.2493 16Z" stroke="white" stroke-width="2" stroke-linecap="round"/></symbol>
	<symbol id="bag-blue" xmlns="http://www.w3.org/2000/svg" width="20" height="18" viewBox="0 0 20 18" fill="none"><path d="M1.24927 1H1.85558C2.87621 1 3.7331 1.7685 3.84379 2.78311L4.65475 10.2169C4.76543 11.2315 5.62233 12 6.64295 12H15.2953C16.2095 12 17.0074 11.3801 17.2333 10.4942L18.6353 3.18306C18.6944 2.87477 18.4582 2.58889 18.1443 2.58889H3.81298M4.87402 15.6249H5.62402M4.87402 16.3749H5.62402M15.874 15.6249H16.624M15.874 16.3749H16.624M6.24927 16C6.24927 16.5523 5.80155 17 5.24927 17C4.69698 17 4.24927 16.5523 4.24927 16C4.24927 15.4477 4.69698 15 5.24927 15C5.80155 15 6.24927 15.4477 6.24927 16ZM17.2493 16C17.2493 16.5523 16.8016 17 16.2493 17C15.697 17 15.2493 16.5523 15.2493 16C15.2493 15.4477 15.697 15 16.2493 15C16.8016 15 17.2493 15.4477 17.2493 16Z" stroke="#163970" stroke-width="2" stroke-linecap="round"/></symbol>
	<symbol id="menu" xmlns="http://www.w3.org/2000/svg" width="22" height="18" viewBox="0 0 22 18" fill="none"><path fill-rule="evenodd" clip-rule="evenodd" d="M0.750244 1.12442C0.750244 0.503102 1.25392 -0.000579834 1.87524 -0.000579834H20.6261C21.2474 -0.000579834 21.7511 0.503102 21.7511 1.12442C21.7511 1.74575 21.2474 2.24942 20.6261 2.24942H1.87524C1.25392 2.24942 0.750244 1.74575 0.750244 1.12442ZM0.750244 8.99964C0.750244 8.37833 1.25392 7.87464 1.87524 7.87464H20.6261C21.2474 7.87464 21.7511 8.37833 21.7511 8.99964C21.7511 9.62097 21.2474 10.1246 20.6261 10.1246H1.87524C1.25392 10.1246 0.750244 9.62097 0.750244 8.99964ZM1.87524 15.7506C1.25392 15.7506 0.750244 16.2543 0.750244 16.8756C0.750244 17.4969 1.25392 18.0006 1.87524 18.0006H20.6261C21.2474 18.0006 21.7511 17.4969 21.7511 16.8756C21.7511 16.2543 21.2474 15.7506 20.6261 15.7506H1.87524Z" fill="white"/></symbol>
	<symbol id="account_circle" xmlns="http://www.w3.org/2000/svg" width="21" height="20" viewBox="0 0 21 20" fill="none"><path d="M10.4993 12.1875C13.5196 12.1875 15.968 9.73906 15.968 6.71875C15.968 3.69844 13.5196 1.25 10.4993 1.25C7.47896 1.25 5.03052 3.69844 5.03052 6.71875C5.03052 9.73906 7.47896 12.1875 10.4993 12.1875ZM10.4993 12.1875C5.66678 12.1875 1.74927 15.1256 1.74927 18.75M10.4993 12.1875C15.3318 12.1875 19.2493 15.1256 19.2493 18.75" stroke="white" stroke-width="2" stroke-linecap="round"/></symbol>
	<symbol id="account_blue" xmlns="http://www.w3.org/2000/svg" width="21" height="20" viewBox="0 0 20 20" fill="none"><path xmlns="http://www.w3.org/2000/svg" id="Icon" d="M9.75 11.9375C12.7703 11.9375 15.2188 9.48906 15.2188 6.46875C15.2188 3.44844 12.7703 1 9.75 1C6.72969 1 4.28125 3.44844 4.28125 6.46875C4.28125 9.48906 6.72969 11.9375 9.75 11.9375ZM9.75 11.9375C4.91751 11.9375 1 14.8756 1 18.5M9.75 11.9375C14.5825 11.9375 18.5 14.8756 18.5 18.5" stroke="#163970" stroke-width="2" stroke-linecap="round"/></symbol>
	<symbol id="wishlist-icon" xmlns="http://www.w3.org/2000/svg" width="25" height="24" viewBox="0 0 25 24" fill="none"><path xmlns="http://www.w3.org/2000/svg" id="Icon_2" fill-rule="evenodd" clip-rule="evenodd" d="M10.9932 3.12906C8.9938 0.799038 5.65975 0.17227 3.1547 2.30587C0.649644 4.43947 0.296968 8.00674 2.2642 10.5302C3.89982 12.6282 8.84977 17.0532 10.4721 18.4853C10.6536 18.6456 10.7444 18.7257 10.8502 18.7572C10.9426 18.7846 11.0437 18.7846 11.1361 18.7572C11.2419 18.7257 11.3327 18.6456 11.5142 18.4853C13.1365 17.0532 18.0865 12.6282 19.7221 10.5302C21.6893 8.00674 21.3797 4.41702 18.8316 2.30587C16.2835 0.194713 12.9925 0.799038 10.9932 3.12906Z" stroke="#d3d3d3" stroke-width="2" stroke-linecap="round" stroke-linejoin="round"/></symbol>
	<symbol id="wishlist-icon-white" xmlns="http://www.w3.org/2000/svg" width="25" height="24" viewBox="0 0 25 24" fill="none"><path xmlns="http://www.w3.org/2000/svg" id="Icon_2" fill-rule="evenodd" clip-rule="evenodd" d="M10.9932 3.12906C8.9938 0.799038 5.65975 0.17227 3.1547 2.30587C0.649644 4.43947 0.296968 8.00674 2.2642 10.5302C3.89982 12.6282 8.84977 17.0532 10.4721 18.4853C10.6536 18.6456 10.7444 18.7257 10.8502 18.7572C10.9426 18.7846 11.0437 18.7846 11.1361 18.7572C11.2419 18.7257 11.3327 18.6456 11.5142 18.4853C13.1365 17.0532 18.0865 12.6282 19.7221 10.5302C21.6893 8.00674 21.3797 4.41702 18.8316 2.30587C16.2835 0.194713 12.9925 0.799038 10.9932 3.12906Z" stroke="#fff" stroke-width="2" stroke-linecap="round" stroke-linejoin="round"/></symbol>
	<symbol id="close-white" xmlns="http://www.w3.org/2000/svg" width="16" height="16" viewBox="0 0 16 16" fill="none" ><path xmlns="http://www.w3.org/2000/svg" id="Vector" d="M14.5 1.25146L1.43184 14.7483" stroke="white" stroke-width="1.31" stroke-linecap="round" stroke-linejoin="round"/><path xmlns="http://www.w3.org/2000/svg" id="Vector_2" d="M1.43185 1.25166L14.5 14.7485" stroke="white" stroke-width="1.31" stroke-linecap="round" stroke-linejoin="round"/></symbol>
	<symbol id="close-black" xmlns="http://www.w3.org/2000/svg" width="16" height="16" viewBox="0 0 16 16" fill="none" ><path xmlns="http://www.w3.org/2000/svg" id="Vector" d="M14.5681 1L1.49996 14.4969" stroke="black" stroke-width="1.31" stroke-linecap="round" stroke-linejoin="round"/><path xmlns="http://www.w3.org/2000/svg" id="Vector_2" d="M1.49996 1.0002L14.5681 14.4971" stroke="black" stroke-width="1.31" stroke-linecap="round" stroke-linejoin="round"/></symbol>
	<symbol id="sac" xmlns="http://www.w3.org/2000/svg"  width="23" height="20" viewBox="0 0 23 20" fill="none"><path xmlns="http://www.w3.org/2000/svg"  d="M20.1107 10.4897V9.12503C20.1107 6.83754 19.202 4.64374 17.5845 3.02623C15.967 1.40873 13.7732 0.500031 11.4857 0.500031C9.19819 0.500031 7.00439 1.40873 5.38688 3.02623C3.76938 4.64374 2.86068 6.83754 2.86068 9.12503V10.4897C1.85554 10.9323 1.03295 11.7067 0.53061 12.6834C0.0282715 13.66 -0.123319 14.7796 0.101215 15.8547C0.325749 16.9298 0.912779 17.8951 1.76403 18.589C2.61528 19.283 3.67909 19.6634 4.77735 19.6667C5.28568 19.6667 5.77319 19.4648 6.13264 19.1053C6.49208 18.7459 6.69401 18.2584 6.69401 17.75V12C6.69401 11.4917 6.49208 11.0042 6.13264 10.6447C5.77319 10.2853 5.28568 10.0834 4.77735 10.0834V9.12503C4.77735 7.34587 5.48412 5.63958 6.74217 4.38152C8.00023 3.12347 9.70652 2.4167 11.4857 2.4167C13.2648 2.4167 14.9711 3.12347 16.2292 4.38152C17.4872 5.63958 18.194 7.34587 18.194 9.12503V10.0834C17.6857 10.0834 17.1982 10.2853 16.8387 10.6447C16.4793 11.0042 16.2773 11.4917 16.2773 12V17.75H13.4023C13.1482 17.75 12.9044 17.851 12.7247 18.0307C12.545 18.2104 12.444 18.4542 12.444 18.7084C12.444 18.9625 12.545 19.2063 12.7247 19.386C12.9044 19.5657 13.1482 19.6667 13.4023 19.6667H18.194C19.2923 19.6634 20.3561 19.283 21.2073 18.589C22.0586 17.8951 22.6456 16.9298 22.8701 15.8547C23.0947 14.7796 22.9431 13.66 22.4408 12.6834C21.9384 11.7067 21.1158 10.9323 20.1107 10.4897ZM4.77735 17.75C4.01485 17.75 3.28358 17.4471 2.74442 16.908C2.20525 16.3688 1.90235 15.6375 1.90235 14.875C1.90235 14.1125 2.20525 13.3813 2.74442 12.8421C3.28358 12.3029 4.01485 12 4.77735 12V17.75ZM18.194 17.75V12C18.9565 12 19.6878 12.3029 20.2269 12.8421C20.7661 13.3813 21.069 14.1125 21.069 14.875C21.069 15.6375 20.7661 16.3688 20.2269 16.908C19.6878 17.4471 18.9565 17.75 18.194 17.75Z" fill="#163970"/></symbol>
	<symbol id="arrow-right" xmlns="http://www.w3.org/2000/svg" width="24" height="24" viewBox="0 0 24 24" fill="none"><path xmlns="http://www.w3.org/2000/svg" id="Vector" d="M2.21004 5.32623L5.74171 8.8579C6.15879 9.27498 6.84129 9.27498 7.25837 8.8579L10.79 5.32623" stroke="#163970" stroke-width="0.875" stroke-miterlimit="10" stroke-linecap="round" stroke-linejoin="round"/></symbol>
	<symbol id="close" xmlns="http://www.w3.org/2000/svg" viewBox="0 -960 960 960" fill="currentColor"><path d="m256-200-56-56 224-224-224-224 56-56 224 224 224-224 56 56-224 224 224 224-56 56-224-224-224 224Z"/></symbol>
	<symbol id="chevron-right" xmlns="http://www.w3.org/2000/svg" viewBox="0 -960 960 960" fill="currentColor"><path d="M504-480 320-664l56-56 240 240-240 240-56-56 184-184Z"/></symbol>
	<symbol id="favorite" xmlns="http://www.w3.org/2000/svg" viewBox="0 -960 960 960" fill="currentColor"><path d="m480-120-58-52q-101-91-167-157T150-447.5Q111-500 95.5-544T80-634q0-94 63-157t157-63q52 0 99 22t81 62q34-40 81-62t99-22q94 0 157 63t63 157q0 46-15.5 90T810-447.5Q771-395 705-329T538-172l-58 52Zm0-108q96-86 158-147.5t98-107q36-45.5 50-81t14-70.5q0-60-40-100t-100-40q-47 0-87 26.5T518-680h-76q-15-41-55-67.5T300-774q-60 0-100 40t-40 100q0 35 14 70.5t50 81q36 45.5 98 107T480-228Zm0-273Z"/></symbol>
	<symbol id="home_pin" xmlns="http://www.w3.org/2000/svg" viewBox="0 -960 960 960" fill="currentColor"><path d="M360-440h80v-110h80v110h80v-190l-120-80-120 80v190Zm120 254q122-112 181-203.5T720-552q0-109-69.5-178.5T480-800q-101 0-170.5 69.5T240-552q0 71 59 162.5T480-186Zm0 106Q319-217 239.5-334.5T160-552q0-150 96.5-239T480-880q127 0 223.5 89T800-552q0 100-79.5 217.5T480-80Zm0-480Z"/></symbol>
	<symbol id="call" xmlns="http://www.w3.org/2000/svg" viewBox="0 -960 960 960" fill="currentColor"><path d="M798-120q-125 0-247-54.5T329-329Q229-429 174.5-551T120-798q0-18 12-30t30-12h162q14 0 25 9.5t13 22.5l26 140q2 16-1 27t-11 19l-97 98q20 37 47.5 71.5T387-386q31 31 65 57.5t72 48.5l94-94q9-9 23.5-13.5T670-390l138 28q14 4 23 14.5t9 23.5v162q0 18-12 30t-30 12ZM241-600l66-66-17-94h-89q5 41 14 81t26 79Zm358 358q39 17 79.5 27t81.5 13v-88l-94-19-67 67ZM241-600Zm358 358Z"/></symbol>
	<symbol id="local_shipping" xmlns="http://www.w3.org/2000/svg" viewBox="0 -960 960 960" fill="currentColor"><path d="M240-160q-50 0-85-35t-35-85H40v-440q0-33 23.5-56.5T120-800h560v160h120l120 160v200h-80q0 50-35 85t-85 35q-50 0-85-35t-35-85H360q0 50-35 85t-85 35Zm0-80q17 0 28.5-11.5T280-280q0-17-11.5-28.5T240-320q-17 0-28.5 11.5T200-280q0 17 11.5 28.5T240-240ZM120-360h32q17-18 39-29t49-11q27 0 49 11t39 29h272v-360H120v360Zm600 120q17 0 28.5-11.5T760-280q0-17-11.5-28.5T720-320q-17 0-28.5 11.5T680-280q0 17 11.5 28.5T720-240Zm-40-200h170l-90-120h-80v120ZM360-540Z"/></symbol>
	<symbol id="pan_zoom" xmlns="http://www.w3.org/2000/svg" viewBox="0 -960 960 960" fill="currentColor"><path d="M120-120v-240h80v104l124-124 56 56-124 124h104v80H120Zm516-460-56-56 124-124H600v-80h240v240h-80v-104L636-580Z"/></symbol>
	<symbol id="share" xmlns="http://www.w3.org/2000/svg" viewBox="0 -960 960 960" fill="currentColor"><path d="M720-80q-50 0-85-35t-35-85q0-7 1-14.5t3-13.5L322-392q-17 15-38 23.5t-44 8.5q-50 0-85-35t-35-85q0-50 35-85t85-35q23 0 44 8.5t38 23.5l282-164q-2-6-3-13.5t-1-14.5q0-50 35-85t85-35q50 0 85 35t35 85q0 50-35 85t-85 35q-23 0-44-8.5T638-672L356-508q2 6 3 13.5t1 14.5q0 7-1 14.5t-3 13.5l282 164q17-15 38-23.5t44-8.5q50 0 85 35t35 85q0 50-35 85t-85 35Zm0-640q17 0 28.5-11.5T760-760q0-17-11.5-28.5T720-800q-17 0-28.5 11.5T680-760q0 17 11.5 28.5T720-720ZM240-440q17 0 28.5-11.5T280-480q0-17-11.5-28.5T240-520q-17 0-28.5 11.5T200-480q0 17 11.5 28.5T240-440Zm480 280q17 0 28.5-11.5T760-200q0-17-11.5-28.5T720-240q-17 0-28.5 11.5T680-200q0 17 11.5 28.5T720-160Zm0-600ZM240-480Zm480 280Z"/></symbol>
	<symbol id="sell" xmlns="http://www.w3.org/2000/svg" viewBox="0 -960 960 960" fill="currentColor"><path d="M856-390 570-104q-12 12-27 18t-30 6q-15 0-30-6t-27-18L103-457q-11-11-17-25.5T80-513v-287q0-33 23.5-56.5T160-880h287q16 0 31 6.5t26 17.5l352 353q12 12 17.5 27t5.5 30q0 15-5.5 29.5T856-390ZM513-160l286-286-353-354H160v286l353 354ZM260-640q25 0 42.5-17.5T320-700q0-25-17.5-42.5T260-760q-25 0-42.5 17.5T200-700q0 25 17.5 42.5T260-640Zm220 160Z"/></symbol>
	<symbol id="check-circle" xmlns="http://www.w3.org/2000/svg" viewBox="0 -960 960 960" fill="currentColor"><path d="m424-296 282-282-56-56-226 226-114-114-56 56 170 170Zm56 216q-83 0-156-31.5T197-197q-54-54-85.5-127T80-480q0-83 31.5-156T197-763q54-54 127-85.5T480-880q83 0 156 31.5T763-763q54 54 85.5 127T880-480q0 83-31.5 156T763-197q-54 54-127 85.5T480-80Zm0-80q134 0 227-93t93-227q0-134-93-227t-227-93q-134 0-227 93t-93 227q0 134 93 227t227 93Zm0-320Z"/></symbol>
	<symbol id="error" xmlns="http://www.w3.org/2000/svg" viewBox="0 -960 960 960" fill="currentColor"><path d="M480-280q17 0 28.5-11.5T520-320q0-17-11.5-28.5T480-360q-17 0-28.5 11.5T440-320q0 17 11.5 28.5T480-280Zm-40-160h80v-240h-80v240Zm40 360q-83 0-156-31.5T197-197q-54-54-85.5-127T80-480q0-83 31.5-156T197-763q54-54 127-85.5T480-880q83 0 156 31.5T763-763q54 54 85.5 127T880-480q0 83-31.5 156T763-197q-54 54-127 85.5T480-80Zm0-80q134 0 227-93t93-227q0-134-93-227t-227-93q-134 0-227 93t-93 227q0 134 93 227t227 93Zm0-320Z"/></symbol>
	<symbol id="trash" xmlns="http://www.w3.org/2000/svg" viewBox="0 -960 960 960" fill="currentColor"><path d="M280-120q-33 0-56.5-23.5T200-200v-520h-40v-80h200v-40h240v40h200v80h-40v520q0 33-23.5 56.5T680-120H280Zm400-600H280v520h400v-520ZM360-280h80v-360h-80v360Zm160 0h80v-360h-80v360ZM280-720v520-520Z"/></symbol>
	<symbol id="rain" xmlns="http://www.w3.org/2000/svg" width="19" height="30" viewBox="0 0 19 30" fill="none"><path xmlns="http://www.w3.org/2000/svg" id="Vector" d="M9.4478 29.556H5.19183L7.40445 19.8565H2.83208C2.39019 19.8563 1.95448 19.7428 1.55975 19.5251C1.16501 19.3075 0.822213 18.9916 0.558735 18.6028C0.295258 18.2141 0.118408 17.7631 0.0423192 17.2861C-0.03377 16.8091 -0.00698923 16.3191 0.120521 15.8554L4.36985 0.45752H14.8433L11.5243 10.157H15.975C16.4814 10.1574 16.9782 10.3081 17.4127 10.5931C17.8471 10.8782 18.203 11.287 18.4424 11.776C18.6819 12.2649 18.7959 12.8159 18.7725 13.3703C18.7491 13.9246 18.589 14.4617 18.3093 14.9243L9.4478 29.556ZM8.02619 27.1311H8.26073L16.4651 13.5833C16.5239 13.4862 16.5575 13.3734 16.5625 13.2569C16.5675 13.1405 16.5435 13.0248 16.4933 12.922C16.443 12.8193 16.3682 12.7334 16.277 12.6735C16.1857 12.6136 16.0814 12.582 15.975 12.5819H8.33153L11.6505 2.88239H6.01161L2.23799 16.5538C2.20982 16.6555 2.20378 16.763 2.22034 16.8676C2.23691 16.9723 2.27562 17.0713 2.33337 17.1566C2.39112 17.242 2.46632 17.3113 2.55292 17.359C2.63953 17.4068 2.73513 17.4317 2.83208 17.4316H10.2443L8.02619 27.1311Z" fill="white"/></symbol>
	<symbol id="delivery-box" xmlns="http://www.w3.org/2000/svg" width="24" height="24" viewBox="0 0 24 24" fill="none"><path xmlns="http://www.w3.org/2000/svg" id="delivery-box" d="M3.45602 7.23996L4.31352 7.75446L3.45602 7.23996ZM5.06783 4.55361L5.92532 5.06811V5.06811L5.06783 4.55361ZM18.9322 4.55361L18.0747 5.06811L18.0747 5.06811L18.9322 4.55361ZM20.544 7.23996L19.6865 7.75446L20.544 7.23996ZM17.476 3.09479L17.1718 4.0474L17.1718 4.0474L17.476 3.09479ZM18.1883 3.49806L18.8486 2.74708L18.8486 2.74708L18.1883 3.49806ZM5.81171 3.49806L6.47205 4.24903V4.24903L5.81171 3.49806ZM6.52395 3.09479L6.21974 2.14219L6.21974 2.14219L6.52395 3.09479ZM20.9738 8.23113L19.9869 8.39255L19.9869 8.39256L20.9738 8.23113ZM20.8586 7.8153L21.7879 7.44597L21.7879 7.44596L20.8586 7.8153ZM19.908 20.782L19.454 19.891H19.454L19.908 20.782ZM20.782 19.908L19.891 19.454V19.454L20.782 19.908ZM3.21799 19.908L2.32698 20.362H2.32698L3.21799 19.908ZM4.09202 20.782L4.54601 19.891L4.54601 19.891L4.09202 20.782ZM3.02623 8.23113L2.03934 8.06972L3.02623 8.23113ZM3.14141 7.8153L2.21211 7.44596H2.21211L3.14141 7.8153ZM4 7C3.44772 7 3 7.44772 3 8C3 8.55228 3.44772 9 4 9V7ZM20 9C20.5523 9 21 8.55228 21 8C21 7.44772 20.5523 7 20 7V9ZM10 11C9.44772 11 9 11.4477 9 12C9 12.5523 9.44772 13 10 13V11ZM14 13C14.5523 13 15 12.5523 15 12C15 11.4477 14.5523 11 14 11V13ZM11 8C11 8.55228 11.4477 9 12 9C12.5523 9 13 8.55228 13 8H11ZM13 3C13 2.44772 12.5523 2 12 2C11.4477 2 11 2.44772 11 3H13ZM2 8.88635V17.8H4V8.88635H2ZM6.2 22H17.8V20H6.2V22ZM22 17.8V8.88635H20V17.8H22ZM4.31352 7.75446L5.92532 5.06811L4.21034 4.03912L2.59853 6.72547L4.31352 7.75446ZM7.81181 4H16.1882V2H7.81181V4ZM18.0747 5.06811L19.6865 7.75446L21.4015 6.72547L19.7897 4.03912L18.0747 5.06811ZM16.1882 4C16.915 4 17.0586 4.01124 17.1718 4.0474L17.7803 2.14219C17.2998 1.98876 16.7828 2 16.1882 2V4ZM19.7897 4.03912C19.4837 3.52925 19.2274 3.08011 18.8486 2.74708L17.528 4.24903C17.6172 4.32752 17.7008 4.44492 18.0747 5.06811L19.7897 4.03912ZM17.1718 4.0474C17.3032 4.08934 17.4244 4.15799 17.528 4.24903L18.8486 2.74708C18.538 2.47396 18.1743 2.26802 17.7803 2.14219L17.1718 4.0474ZM5.92532 5.06811C6.29924 4.44492 6.38278 4.32752 6.47205 4.24903L5.15138 2.74708C4.77264 3.08011 4.51626 3.52925 4.21034 4.03912L5.92532 5.06811ZM7.81181 2C7.2172 2 6.70017 1.98876 6.21974 2.14219L6.82817 4.0474C6.9414 4.01124 7.08505 4 7.81181 4V2ZM6.47205 4.24903C6.57558 4.15799 6.69683 4.08934 6.82817 4.0474L6.21974 2.14219C5.82573 2.26802 5.46199 2.47396 5.15138 2.74708L6.47205 4.24903ZM22 8.88635C22 8.58786 22.003 8.32864 21.9607 8.06971L19.9869 8.39256C19.997 8.45433 20 8.52502 20 8.88635H22ZM19.6865 7.75446C19.8724 8.06429 19.9062 8.12646 19.9293 8.18464L21.7879 7.44596C21.691 7.20215 21.555 6.98142 21.4015 6.72547L19.6865 7.75446ZM21.9607 8.06972C21.9257 7.85618 21.8678 7.64705 21.7879 7.44597L19.9293 8.18462C19.9559 8.25166 19.9752 8.32137 19.9869 8.39255L21.9607 8.06972ZM17.8 22C18.3436 22 18.8114 22.0008 19.195 21.9694C19.5904 21.9371 19.9836 21.8658 20.362 21.673L19.454 19.891C19.4045 19.9162 19.3038 19.9539 19.0322 19.9761C18.7488 19.9992 18.3766 20 17.8 20V22ZM20 17.8C20 18.3766 19.9992 18.7488 19.9761 19.0322C19.9539 19.3038 19.9162 19.4045 19.891 19.454L21.673 20.362C21.8658 19.9836 21.9371 19.5904 21.9694 19.195C22.0008 18.8114 22 18.3436 22 17.8H20ZM20.362 21.673C20.9265 21.3854 21.3854 20.9265 21.673 20.362L19.891 19.454C19.7951 19.6422 19.6422 19.7951 19.454 19.891L20.362 21.673ZM2 17.8C2 18.3436 1.99922 18.8114 2.03057 19.195C2.06287 19.5904 2.13419 19.9836 2.32698 20.362L4.10899 19.454C4.0838 19.4045 4.04612 19.3038 4.02393 19.0322C4.00078 18.7488 4 18.3766 4 17.8H2ZM6.2 20C5.62345 20 5.25117 19.9992 4.96784 19.9761C4.69617 19.9539 4.59545 19.9162 4.54601 19.891L3.63803 21.673C4.01641 21.8658 4.40963 21.9371 4.80497 21.9694C5.18864 22.0008 5.65645 22 6.2 22V20ZM2.32698 20.362C2.6146 20.9265 3.07354 21.3854 3.63803 21.673L4.54601 19.891C4.35785 19.7951 4.20487 19.6422 4.10899 19.454L2.32698 20.362ZM4 8.88635C4 8.52502 4.00301 8.45433 4.01311 8.39255L2.03934 8.06972C1.99699 8.32864 2 8.58786 2 8.88635H4ZM2.59853 6.72547C2.44496 6.98142 2.30901 7.20215 2.21211 7.44596L4.0707 8.18463C4.09382 8.12646 4.12761 8.06429 4.31352 7.75446L2.59853 6.72547ZM4.01311 8.39255C4.02476 8.32137 4.04407 8.25166 4.0707 8.18463L2.21211 7.44596C2.1322 7.64704 2.07427 7.85618 2.03934 8.06972L4.01311 8.39255ZM4 9H20V7H4V9ZM10 13H14V11H10V13ZM13 8V3H11V8H13Z" fill="#A8A8A8"/></symbol>
	<symbol id="ecomm-ticket" xmlns="http://www.w3.org/2000/svg" width="29" height="24" viewBox="0 0 29 24" fill="none"><path xmlns="http://www.w3.org/2000/svg" id="ecomm-ticket" d="M3.73627 21.9866L4.19026 21.0956H4.19026L3.73627 21.9866ZM2.68015 20.9305L1.78914 21.3845L2.68015 20.9305ZM26.5828 19.1086L27.5828 19.1126L26.5828 19.1086ZM26.32 20.9305L27.211 21.3845L27.211 21.3845L26.32 20.9305ZM25.2639 21.9866L25.7179 22.8776L25.2639 21.9866ZM25.2639 8.0134L25.7179 7.12239V7.12239L25.2639 8.0134ZM26.32 9.06952L27.211 8.61553V8.61553L26.32 9.06952ZM3.73627 8.0134L4.19026 8.90441L4.19026 8.90441L3.73627 8.0134ZM2.68015 9.06952L3.57116 9.52351L3.57116 9.52351L2.68015 9.06952ZM26.1012 18.5932L25.9695 19.5845L25.9695 19.5845L26.1012 18.5932ZM26.1011 11.4068L26.2329 12.3981L26.1011 11.4068ZM26.582 10.8911L25.582 10.8984V10.8984L26.582 10.8911ZM26.4433 11.3331L26.9795 12.1772L26.9795 12.1772L26.4433 11.3331ZM26.5563 11.2031L25.6459 10.7894L25.6459 10.7894L26.5563 11.2031ZM26.5562 18.7963L27.4657 18.3805L27.4657 18.3805L26.5562 18.7963ZM26.4432 18.6668L25.9078 19.5114L25.9079 19.5114L26.4432 18.6668ZM20.3334 7.75C20.3334 7.19772 19.8857 6.75 19.3334 6.75C18.7811 6.75 18.3334 7.19772 18.3334 7.75H20.3334ZM18.3334 22.25C18.3334 22.8023 18.7811 23.25 19.3334 23.25C19.8857 23.25 20.3334 22.8023 20.3334 22.25H18.3334ZM7.25008 11.5833C6.6978 11.5833 6.25008 12.031 6.25008 12.5833C6.25008 13.1356 6.6978 13.5833 7.25008 13.5833V11.5833ZM14.5001 13.5833C15.0524 13.5833 15.5001 13.1356 15.5001 12.5833C15.5001 12.031 15.0524 11.5833 14.5001 11.5833V13.5833ZM7.25008 16.4167C6.6978 16.4167 6.25008 16.8644 6.25008 17.4167C6.25008 17.969 6.6978 18.4167 7.25008 18.4167V16.4167ZM14.5001 18.4167C15.0524 18.4167 15.5001 17.969 15.5001 17.4167C15.5001 16.8644 15.0524 16.4167 14.5001 16.4167V18.4167ZM6.28341 8.75H22.7167V6.75H6.28341V8.75ZM22.7167 21.25H6.28342V23.25H22.7167V21.25ZM6.28342 21.25C5.59018 21.25 5.1304 21.2492 4.77758 21.2204C4.43644 21.1925 4.28427 21.1435 4.19026 21.0956L3.28228 22.8776C3.70522 23.0931 4.1499 23.1758 4.61472 23.2138C5.06787 23.2508 5.62319 23.25 6.28342 23.25V21.25ZM1.41675 18.625C1.41675 19.8895 1.39265 20.6063 1.78914 21.3845L3.57116 20.4765C3.44085 20.2207 3.41675 20.0674 3.41675 18.625H1.41675ZM4.19026 21.0956C3.9237 20.9598 3.70698 20.743 3.57116 20.4765L1.78914 21.3845C2.11671 22.0274 2.63939 22.55 3.28228 22.8776L4.19026 21.0956ZM25.5828 19.1047C25.5789 20.1098 25.536 20.2665 25.429 20.4765L27.211 21.3845C27.5623 20.695 27.579 20.0762 27.5828 19.1126L25.5828 19.1047ZM22.7167 23.25C23.377 23.25 23.9323 23.2508 24.3854 23.2138C24.8503 23.1758 25.2949 23.0931 25.7179 22.8776L24.8099 21.0956C24.7159 21.1435 24.5637 21.1925 24.2226 21.2204C23.8698 21.2492 23.41 21.25 22.7167 21.25V23.25ZM25.429 20.4765C25.2932 20.743 25.0765 20.9598 24.8099 21.0956L25.7179 22.8776C26.3608 22.55 26.8835 22.0274 27.211 21.3845L25.429 20.4765ZM22.7167 8.75C23.41 8.75 23.8698 8.75078 24.2226 8.7796C24.5637 8.80748 24.7159 8.85651 24.8099 8.90441L25.7179 7.12239C25.2949 6.90689 24.8503 6.82422 24.3854 6.78625C23.9323 6.74922 23.377 6.75 22.7167 6.75V8.75ZM24.8099 8.90441C25.0765 9.04023 25.2932 9.25695 25.429 9.52352L27.211 8.61553C26.8835 7.97265 26.3608 7.44996 25.7179 7.12239L24.8099 8.90441ZM6.28341 6.75C5.62319 6.75 5.06787 6.74922 4.61472 6.78625C4.1499 6.82422 3.70522 6.90689 3.28228 7.12239L4.19026 8.90441C4.28427 8.85651 4.43644 8.80748 4.77758 8.7796C5.1304 8.75078 5.59018 8.75 6.28341 8.75V6.75ZM3.41675 11.375C3.41675 9.93255 3.44085 9.77926 3.57116 9.52351L1.78914 8.61553C1.39265 9.39369 1.41675 10.1105 1.41675 11.375H3.41675ZM3.28228 7.12239C2.63939 7.44996 2.11671 7.97265 1.78914 8.61553L3.57116 9.52351C3.70698 9.25695 3.9237 9.04023 4.19026 8.90441L3.28228 7.12239ZM26.233 17.6019C24.9493 17.4313 23.9584 16.3306 23.9584 15H21.9584C21.9584 17.3465 23.705 19.2835 25.9695 19.5845L26.233 17.6019ZM23.9584 15C23.9584 13.6695 24.9492 12.5688 26.2329 12.3981L25.9693 10.4155C23.7049 10.7166 21.9584 12.6535 21.9584 15H23.9584ZM27.582 10.8837C27.5755 9.99609 27.5508 9.28244 27.211 8.61553L25.429 9.52351C25.5234 9.70869 25.5751 9.95242 25.582 10.8984L27.582 10.8837ZM3.41675 18.625V11.375H1.41675V18.625H3.41675ZM26.2329 12.3981C26.315 12.3872 26.4235 12.3732 26.5163 12.3549C26.6022 12.3379 26.79 12.2976 26.9795 12.1772L25.907 10.489C25.9786 10.4436 26.0407 10.4194 26.0768 10.4074C26.1113 10.3959 26.1327 10.392 26.1289 10.3928C26.1258 10.3934 26.1135 10.3956 26.0836 10.4C26.054 10.4043 26.0187 10.409 25.9693 10.4155L26.2329 12.3981ZM25.582 10.8984C25.5823 10.9423 25.5825 10.9716 25.5824 10.9958C25.5822 11.0202 25.5818 11.0267 25.5819 11.0239C25.5821 11.0212 25.5837 10.9953 25.5915 10.9564C25.5998 10.9149 25.6155 10.8562 25.6459 10.7894L27.4667 11.6167C27.554 11.4247 27.5717 11.2482 27.5779 11.1504C27.5838 11.0574 27.5825 10.953 27.582 10.8837L25.582 10.8984ZM26.9795 12.1772C27.1972 12.0388 27.36 11.8516 27.4667 11.6167L25.6459 10.7894C25.6646 10.7483 25.6987 10.6862 25.7554 10.6209C25.8121 10.5557 25.8689 10.5133 25.907 10.489L26.9795 12.1772ZM27.5828 19.1126C27.5831 19.043 27.5841 18.9388 27.5779 18.8459C27.5715 18.7488 27.5533 18.5723 27.4657 18.3805L25.6468 19.2121C25.6162 19.1452 25.6003 19.0865 25.592 19.0452C25.5841 19.0066 25.5825 18.9808 25.5823 18.9783C25.5822 18.9758 25.5827 18.9825 25.5829 19.0069C25.5831 19.0313 25.583 19.0608 25.5828 19.1047L27.5828 19.1126ZM25.9695 19.5845C26.0188 19.5911 26.0542 19.5958 26.0838 19.6001C26.1137 19.6044 26.1261 19.6067 26.1292 19.6073C26.1331 19.608 26.1118 19.6042 26.0774 19.5928C26.0415 19.5808 25.9794 19.5568 25.9078 19.5114L26.9786 17.8221C26.7892 17.7021 26.6016 17.6619 26.5161 17.645C26.4234 17.6268 26.3151 17.6128 26.233 17.6019L25.9695 19.5845ZM27.4657 18.3805C27.3586 18.1463 27.196 17.96 26.9785 17.8221L25.9079 19.5114C25.8703 19.4876 25.8135 19.4454 25.7564 19.38C25.6994 19.3146 25.6653 19.2526 25.6468 19.2121L27.4657 18.3805ZM18.3334 7.75V22.25H20.3334V7.75H18.3334ZM7.25008 13.5833H14.5001V11.5833H7.25008V13.5833ZM7.25008 18.4167H14.5001V16.4167H7.25008V18.4167Z" fill="#A8A8A8"/></symbol>
	<symbol id="arrowRight" xmlns="http://www.w3.org/2000/svg" width="13" height="13" viewBox="0 0 13 13" fill="none"><path xmlns="http://www.w3.org/2000/svg" id="Vector" d="M2.21004 4.82593L5.74171 8.35759C6.15879 8.77468 6.84129 8.77468 7.25837 8.35759L10.79 4.82593" stroke="black" stroke-width="0.875" stroke-miterlimit="10" stroke-linecap="round" stroke-linejoin="round"/></symbol>
	<symbol id="contact-white" xmlns="http://www.w3.org/2000/svg" width="29" height="24" viewBox="0 0 29 24" fill="none"><path xmlns="http://www.w3.org/2000/svg" id="SAC_2" d="M21.0525 10.5492V9.18457C21.0525 6.89708 20.1438 4.70328 18.5263 3.08577C16.9088 1.46827 14.715 0.55957 12.4275 0.55957C10.14 0.55957 7.94622 1.46827 6.32872 3.08577C4.71122 4.70328 3.80251 6.89708 3.80251 9.18457V10.5492C2.79737 10.9918 1.97478 11.7663 1.47244 12.7429C0.970105 13.7196 0.818514 14.8392 1.04305 15.9142C1.26758 16.9893 1.85461 17.9546 2.70586 18.6485C3.55712 19.3425 4.62092 19.723 5.71918 19.7262C6.22751 19.7262 6.71502 19.5243 7.07447 19.1649C7.43391 18.8054 7.63585 18.3179 7.63585 17.8096V12.0596C7.63585 11.5512 7.43391 11.0637 7.07447 10.7043C6.71502 10.3448 6.22751 10.1429 5.71918 10.1429V9.18457C5.71918 7.40541 6.42595 5.69912 7.68401 4.44106C8.94206 3.18301 10.6484 2.47624 12.4275 2.47624C14.2067 2.47624 15.913 3.18301 17.171 4.44106C18.4291 5.69912 19.1358 7.40541 19.1358 9.18457V10.1429C18.6275 10.1429 18.14 10.3448 17.7806 10.7043C17.4211 11.0637 17.2192 11.5512 17.2192 12.0596V17.8096H14.3442C14.09 17.8096 13.8463 17.9105 13.6665 18.0903C13.4868 18.27 13.3858 18.5137 13.3858 18.7679C13.3858 19.0221 13.4868 19.2658 13.6665 19.4455C13.8463 19.6253 14.09 19.7262 14.3442 19.7262H19.1358C20.2341 19.723 21.2979 19.3425 22.1492 18.6485C23.0004 17.9546 23.5874 16.9893 23.812 15.9142C24.0365 14.8392 23.8849 13.7196 23.3826 12.7429C22.8802 11.7663 22.0577 10.9918 21.0525 10.5492ZM5.71918 17.8096C4.95668 17.8096 4.22542 17.5067 3.68625 16.9675C3.14708 16.4283 2.84418 15.6971 2.84418 14.9346C2.84418 14.1721 3.14708 13.4408 3.68625 12.9016C4.22542 12.3625 4.95668 12.0596 5.71918 12.0596V17.8096ZM19.1358 17.8096V12.0596C19.8983 12.0596 20.6296 12.3625 21.1688 12.9016C21.7079 13.4408 22.0108 14.1721 22.0108 14.9346C22.0108 15.6971 21.7079 16.4283 21.1688 16.9675C20.6296 17.5067 19.8983 17.8096 19.1358 17.8096Z" fill="white"/></symbol>
	<symbol id="pix" xmlns="http://www.w3.org/2000/svg" width="44" height="48" viewBox="0 0 44 48" fill="none"><g id="Vector"><mask id="path-1-inside-1_534_20554" fill="white"><path d="M34.3852 36.4156C33.5302 36.4189 32.683 36.242 31.8926 35.8949C31.1022 35.5479 30.3843 35.0376 29.7804 34.3937L23.1287 27.3133C22.8935 27.074 22.5805 26.9404 22.255 26.9404C21.9294 26.9404 21.6165 27.074 21.3812 27.3133L14.7071 34.4132C14.1035 35.058 13.3858 35.5693 12.5954 35.9173C11.805 36.2654 10.9577 36.4434 10.1022 36.441H8.8L17.2287 45.4074C18.4928 46.7493 20.2057 47.5029 21.9916 47.5029C23.7774 47.5029 25.4903 46.7493 26.7545 45.4074L35.2 36.4216L34.3852 36.4156Z"/><path d="M10.1043 11.5562C10.9602 11.5538 11.8081 11.7317 12.5989 12.0796C13.3897 12.4275 14.1078 12.9386 14.7116 13.5832L21.3893 20.6814C21.6214 20.9273 21.9358 21.0654 22.2635 21.0654C22.5913 21.0654 22.9057 20.9273 23.1378 20.6814L29.7915 13.6101C30.3949 12.9646 31.1128 12.453 31.9038 12.1047C32.6947 11.7565 33.5428 11.5787 34.3989 11.5816H35.2L26.75 2.60127C26.1243 1.93603 25.3813 1.40832 24.5637 1.04828C23.746 0.688241 22.8696 0.50293 21.9845 0.50293C21.0995 0.50293 20.2231 0.688241 19.4054 1.04828C18.5877 1.40832 17.8448 1.93603 17.2191 2.60127L8.8 11.5562H10.1043Z"/><path d="M42.0417 19.0515L36.9772 13.745C36.863 13.794 36.7409 13.8197 36.6175 13.821H34.3146C33.1162 13.8241 31.9674 14.3228 31.118 15.2086L24.5187 22.1187C23.9244 22.7403 23.1189 23.0894 22.2792 23.0894C21.4394 23.0894 20.634 22.7403 20.0396 22.1187L13.4152 15.1823C12.566 14.296 11.4173 13.7968 10.2187 13.7932H7.39157C7.27505 13.7905 7.15991 13.7663 7.05142 13.7217L1.95483 19.0515C0.703029 20.3658 0 22.1468 0 24.0037C0 25.8605 0.703029 27.6415 1.95483 28.9559L7.04027 34.2842C7.14853 34.2388 7.26381 34.2145 7.38041 34.2126H10.2187C11.4172 34.2089 12.566 33.7097 13.4152 32.8236L20.0383 25.8842C21.2357 24.631 23.3226 24.631 24.5187 25.8842L31.118 32.7973C31.9674 33.6831 33.1162 34.1817 34.3146 34.1849H36.6175C36.7409 34.1858 36.8631 34.2115 36.9772 34.2608L42.0417 28.9544C42.6626 28.3042 43.155 27.5321 43.4911 26.6824C43.8271 25.8327 44 24.922 44 24.0022C44 23.0824 43.8271 22.1717 43.4911 21.322C43.155 20.4723 42.6626 19.7002 42.0417 19.05"/></mask><path d="M34.3852 36.4156L34.3999 34.4157L34.3887 34.4156L34.3775 34.4157L34.3852 36.4156ZM29.7804 34.3937L31.2391 33.0255L31.238 33.0243L29.7804 34.3937ZM23.1287 27.3133L24.5864 25.9439L24.5709 25.9274L24.555 25.9112L23.1287 27.3133ZM21.3812 27.3133L19.955 25.9112L19.9393 25.9272L19.924 25.9435L21.3812 27.3133ZM14.7071 34.4132L13.2499 33.0433L13.2469 33.0465L14.7071 34.4132ZM10.1022 36.441L10.1077 34.441H10.1022V36.441ZM8.8 36.441V34.441H4.17499L7.34277 37.8109L8.8 36.441ZM17.2287 45.4074L15.7714 46.7772L15.7729 46.7788L17.2287 45.4074ZM21.9916 47.5029V49.5029V47.5029ZM26.7545 45.4074L28.2102 46.7788L28.2118 46.7771L26.7545 45.4074ZM35.2 36.4216L36.6573 37.7913L39.7929 34.4553L35.2147 34.4217L35.2 36.4216ZM10.1043 11.5562V13.5562L10.11 13.5562L10.1043 11.5562ZM14.7116 13.5832L13.252 14.9505L13.2549 14.9536L14.7116 13.5832ZM21.3893 20.6814L19.9326 22.0518L19.9348 22.0542L21.3893 20.6814ZM23.1378 20.6814L24.5922 22.0542L24.5943 22.052L23.1378 20.6814ZM29.7915 13.6101L31.2481 14.9806L31.2526 14.9758L29.7915 13.6101ZM34.3989 11.5816L34.3921 13.5816H34.3989V11.5816ZM35.2 11.5816V13.5816H39.8281L36.6566 10.211L35.2 11.5816ZM26.75 2.60127L25.2932 3.97155L25.2934 3.97182L26.75 2.60127ZM21.9845 0.50293V-1.49707V0.50293ZM17.2191 2.60127L15.7623 1.23098L15.762 1.23132L17.2191 2.60127ZM8.8 11.5562L7.34286 10.1863L4.17456 13.5562H8.8V11.5562ZM36.9772 13.745L38.424 12.3642L37.4657 11.3602L36.1899 11.9065L36.9772 13.745ZM36.6175 13.821V15.821H36.6278L36.638 15.8209L36.6175 13.821ZM34.3146 13.821V11.821L34.3093 11.821L34.3146 13.821ZM31.118 15.2086L29.6745 13.8243L29.6717 13.8273L31.118 15.2086ZM24.5187 22.1187L25.9642 23.5009L25.9651 23.5001L24.5187 22.1187ZM20.0396 22.1187L18.5933 23.5001L18.5941 23.5009L20.0396 22.1187ZM13.4152 15.1823L14.8616 13.801L14.8594 13.7987L13.4152 15.1823ZM10.2187 13.7932L10.2246 11.7932H10.2187V13.7932ZM7.39157 13.7932L7.3444 15.7927L7.36798 15.7932H7.39157V13.7932ZM7.05142 13.7217L7.81178 11.8719L6.5493 11.3529L5.60594 12.3394L7.05142 13.7217ZM1.95483 19.0515L0.509343 17.6692L0.506557 17.6721L1.95483 19.0515ZM0 24.0037H-2H0ZM1.95483 28.9559L0.506556 30.3352L0.508024 30.3367L1.95483 28.9559ZM7.04027 34.2842L5.59347 35.665L6.5442 36.6612L7.81399 36.1285L7.04027 34.2842ZM7.38041 34.2126V32.2126H7.36416L7.34791 32.2129L7.38041 34.2126ZM10.2187 34.2126V36.2126L10.2248 36.2126L10.2187 34.2126ZM13.4152 32.8236L14.8592 34.2074L14.862 34.2044L13.4152 32.8236ZM20.0383 25.8842L18.5923 24.5025L18.5915 24.5033L20.0383 25.8842ZM24.5187 25.8842L23.0719 27.2651L23.072 27.2652L24.5187 25.8842ZM31.118 32.7973L29.6714 34.1783L29.6745 34.1815L31.118 32.7973ZM34.3146 34.1849L34.3093 36.1849H34.3146V34.1849ZM36.6175 34.1849L36.6322 32.1849L36.6249 32.1849H36.6175V34.1849ZM36.9772 34.2608L36.1846 36.0971L37.4628 36.6488L38.424 35.6417L36.9772 34.2608ZM42.0417 28.9544L40.5952 27.5733L40.5949 27.5736L42.0417 28.9544ZM34.3775 34.4157C33.8046 34.4179 33.2337 34.2995 32.6967 34.0637L31.0885 37.7262C32.1322 38.1844 33.2557 38.42 34.3929 38.4156L34.3775 34.4157ZM32.6967 34.0637C32.1592 33.8277 31.6626 33.4771 31.2391 33.0255L28.3216 35.7619C29.106 36.5982 30.0452 37.2681 31.0885 37.7262L32.6967 34.0637ZM31.238 33.0243L24.5864 25.9439L21.6711 28.6827L28.3227 35.7631L31.238 33.0243ZM24.555 25.9112C23.9567 25.3027 23.1352 24.9404 22.255 24.9404V28.9404C22.0258 28.9404 21.8302 28.8453 21.7025 28.7154L24.555 25.9112ZM22.255 24.9404C21.3748 24.9404 20.5532 25.3027 19.955 25.9112L22.8074 28.7154C22.6797 28.8453 22.4841 28.9404 22.255 28.9404V24.9404ZM19.924 25.9435L13.2499 33.0433L16.1643 35.783L22.8384 28.6832L19.924 25.9435ZM13.2469 33.0465C12.8235 33.4988 12.327 33.8502 11.7894 34.0869L13.4015 37.7477C14.4447 37.2883 15.3835 36.6173 16.1673 35.7799L13.2469 33.0465ZM11.7894 34.0869C11.2522 34.3235 10.681 34.4426 10.1077 34.4411L10.0967 38.441C11.2343 38.4442 12.3579 38.2073 13.4015 37.7477L11.7894 34.0869ZM10.1022 34.441H8.8V38.441H10.1022V34.441ZM7.34277 37.8109L15.7714 46.7772L18.6859 44.0375L10.2572 35.0712L7.34277 37.8109ZM15.7729 46.7788C17.4012 48.5072 19.6348 49.5029 21.9916 49.5029V45.5029C20.7766 45.5029 19.5844 44.9914 18.6844 44.036L15.7729 46.7788ZM21.9916 49.5029C24.3484 49.5029 26.582 48.5072 28.2102 46.7788L25.2987 44.036C24.3987 44.9914 23.2065 45.5029 21.9916 45.5029V49.5029ZM28.2118 46.7771L36.6573 37.7913L33.7427 35.0519L25.2971 44.0377L28.2118 46.7771ZM35.2147 34.4217L34.3999 34.4157L34.3706 38.4156L35.1853 38.4216L35.2147 34.4217ZM10.11 13.5562C10.684 13.5546 11.2558 13.6737 11.7935 13.9102L13.4043 10.2489C12.3604 9.78965 11.2365 9.55298 10.0987 9.55621L10.11 13.5562ZM11.7935 13.9102C12.3316 14.147 12.8285 14.4983 13.252 14.9505L16.1713 12.2159C15.3871 11.3788 14.4478 10.708 13.4043 10.2489L11.7935 13.9102ZM13.2549 14.9536L19.9326 22.0518L22.846 19.311L16.1684 12.2128L13.2549 14.9536ZM19.9348 22.0542C20.5313 22.6861 21.3659 23.0654 22.2635 23.0654V19.0654C22.5057 19.0654 22.7116 19.1686 22.8438 19.3086L19.9348 22.0542ZM22.2635 23.0654C23.1612 23.0654 23.9958 22.6861 24.5922 22.0542L21.6833 19.3086C21.8155 19.1686 22.0214 19.0654 22.2635 19.0654V23.0654ZM24.5943 22.052L31.2481 14.9806L28.335 12.2395L21.6812 19.3109L24.5943 22.052ZM31.2526 14.9758C31.6755 14.5235 32.1719 14.1719 32.7097 13.9352L31.0979 10.2743C30.0538 10.734 29.1143 11.4058 28.3305 12.2443L31.2526 14.9758ZM32.7097 13.9352C33.247 13.6986 33.8185 13.5796 34.3921 13.5816L34.4056 9.58161C33.2671 9.57776 32.1423 9.81444 31.0979 10.2743L32.7097 13.9352ZM34.3989 13.5816H35.2V9.5816H34.3989V13.5816ZM36.6566 10.211L28.2065 1.23071L25.2934 3.97182L33.7434 12.9521L36.6566 10.211ZM28.2068 1.23098C27.4014 0.374706 26.4385 -0.311503 25.3696 -0.782131L23.7577 2.87869C24.3242 3.12814 24.8471 3.49735 25.2932 3.97155L28.2068 1.23098ZM25.3696 -0.782131C24.3005 -1.25292 23.1498 -1.49707 21.9845 -1.49707V2.50293C22.5894 2.50293 23.1915 2.6294 23.7577 2.87869L25.3696 -0.782131ZM21.9845 -1.49707C20.8193 -1.49707 19.6686 -1.25292 18.5994 -0.782131L20.2114 2.87869C20.7775 2.6294 21.3797 2.50293 21.9845 2.50293V-1.49707ZM18.5994 -0.782131C17.5306 -0.311502 16.5677 0.374709 15.7623 1.23098L18.6759 3.97155C19.122 3.49735 19.6449 3.12814 20.2114 2.87869L18.5994 -0.782131ZM15.762 1.23132L7.34286 10.1863L10.2571 12.9261L18.6762 3.97121L15.762 1.23132ZM8.8 13.5562H10.1043V9.5562H8.8V13.5562ZM43.4885 17.6706L38.424 12.3642L35.5304 15.1259L40.5949 20.4323L43.4885 17.6706ZM36.1899 11.9065C36.3164 11.8524 36.4548 11.8226 36.597 11.8211L36.638 15.8209C37.027 15.8169 37.4095 15.7356 37.7645 15.5836L36.1899 11.9065ZM36.6175 11.821H34.3146V15.821H36.6175V11.821ZM34.3093 11.821C32.5532 11.8256 30.8896 12.5571 29.6745 13.8243L32.5616 16.5928C33.0452 16.0885 33.6791 15.8227 34.3198 15.821L34.3093 11.821ZM29.6717 13.8273L23.0723 20.7374L25.9651 23.5001L32.5644 16.5899L29.6717 13.8273ZM23.0731 20.7366C22.8459 20.9743 22.5583 21.0894 22.2792 21.0894V25.0894C23.6796 25.0894 25.0029 24.5064 25.9642 23.5009L23.0731 20.7366ZM22.2792 21.0894C22.0001 21.0894 21.7125 20.9743 21.4852 20.7366L18.5941 23.5009C19.5555 24.5064 20.8788 25.0894 22.2792 25.0894V21.0894ZM21.486 20.7374L14.8616 13.801L11.9688 16.5636L18.5933 23.5001L21.486 20.7374ZM14.8594 13.7987C13.6446 12.5307 11.9809 11.7984 10.2246 11.7933L10.2128 15.7932C10.8536 15.7951 11.4875 16.0612 11.971 16.5659L14.8594 13.7987ZM10.2187 11.7932H7.39157V15.7932H10.2187V11.7932ZM7.43873 11.7938C7.56872 11.7969 7.6952 11.8239 7.81178 11.8719L6.29107 15.5715C6.62462 15.7086 6.98139 15.7841 7.3444 15.7927L7.43873 11.7938ZM5.60594 12.3394L0.509346 17.6692L3.40031 20.4337L8.4969 15.1039L5.60594 12.3394ZM0.506557 17.6721C-1.10837 19.3678 -2 21.6464 -2 24.0037H2C2 22.6473 2.51443 21.3639 3.4031 20.4308L0.506557 17.6721ZM-2 24.0037C-2 26.3609 -1.10837 28.6395 0.506557 30.3352L3.4031 27.5765C2.51443 26.6435 2 25.3601 2 24.0037H-2ZM0.508024 30.3367L5.59347 35.665L8.48707 32.9033L3.40163 27.575L0.508024 30.3367ZM7.81399 36.1285C7.68893 36.1809 7.55276 36.2101 7.41291 36.2123L7.34791 32.2129C6.97486 32.2189 6.60812 32.2966 6.26654 32.4399L7.81399 36.1285ZM7.38041 36.2126H10.2187V32.2126H7.38041V36.2126ZM10.2248 36.2126C11.981 36.2072 13.6444 35.475 14.8592 34.2074L11.9712 31.4398C11.4875 31.9445 10.8535 32.2106 10.2125 32.2126L10.2248 36.2126ZM14.862 34.2044L21.4851 27.2651L18.5915 24.5033L11.9684 31.4427L14.862 34.2044ZM21.4843 27.2659C21.8944 26.8366 22.6642 26.8379 23.0719 27.2651L25.9655 24.5033C23.9811 22.4241 20.577 22.4254 18.5923 24.5025L21.4843 27.2659ZM23.072 27.2652L29.6714 34.1783L32.5647 31.4163L25.9653 24.5032L23.072 27.2652ZM29.6745 34.1815C30.8896 35.4487 32.5532 36.1802 34.3093 36.1849L34.3198 32.1849C33.6791 32.1832 33.0452 31.9174 32.5616 31.413L29.6745 34.1815ZM34.3146 36.1849H36.6175V32.1849H34.3146V36.1849ZM36.6029 36.1848C36.4567 36.1837 36.3144 36.1531 36.1846 36.0971L37.7698 32.4246C37.4117 32.27 37.0252 32.1878 36.6322 32.1849L36.6029 36.1848ZM38.424 35.6417L43.4885 30.3353L40.5949 27.5736L35.5304 32.88L38.424 35.6417ZM43.4883 30.3355C44.2902 29.4956 44.9216 28.5034 45.3509 27.4179L41.6312 25.947C41.3884 26.5608 41.0349 27.1127 40.5952 27.5733L43.4883 30.3355ZM45.3509 27.4179C45.7801 26.3324 46 25.172 46 24.0022H42C42 24.6719 41.874 25.333 41.6312 25.947L45.3509 27.4179ZM46 24.0022C46 22.8324 45.7801 21.672 45.3509 20.5865L41.6312 22.0574C41.874 22.6714 42 23.3325 42 24.0022H46ZM45.3509 20.5865C44.9216 19.501 44.2902 18.5088 43.4883 17.6689L40.5952 20.4311C41.0349 20.8917 41.3884 21.4436 41.6312 22.0574L45.3509 20.5865Z" fill="#163970" mask="url(#path-1-inside-1_534_20554)"/></g></symbol>
	<symbol id="credit-card" xmlns="http://www.w3.org/2000/svg" width="45" height="35" viewBox="0 0 45 35" fill="none"><path xmlns="http://www.w3.org/2000/svg" id="Icon" d="M9.6 9.25H16.05M9.6 17.5H16.05M9.6 25.75H16.05M7.88 34H37.12C39.5282 34 40.7323 34 41.6522 33.5504C42.4613 33.1549 43.1191 32.5239 43.5313 31.7477C44 30.8653 44 29.7102 44 27.4V7.6C44 5.28978 44 4.13468 43.5313 3.25229C43.1191 2.47612 42.4613 1.84508 41.6522 1.4496C40.7323 1 39.5282 1 37.12 1H7.88C5.47177 1 4.26766 1 3.34784 1.4496C2.53874 1.84508 1.88093 2.47612 1.46867 3.25229C1 4.13468 1 5.28978 1 7.6V27.4C1 29.7102 1 30.8653 1.46867 31.7477C1.88093 32.5239 2.53874 33.1549 3.34784 33.5504C4.26766 34 5.47177 34 7.88 34ZM26.37 19.5625H33.68C34.2821 19.5625 34.5831 19.5625 34.813 19.4501C35.0153 19.3512 35.1798 19.1935 35.2828 18.9994C35.4 18.7788 35.4 18.4901 35.4 17.9125V10.9C35.4 10.3224 35.4 10.0337 35.2828 9.81307C35.1798 9.61903 35.0153 9.46127 34.813 9.3624C34.5831 9.25 34.2821 9.25 33.68 9.25H26.37C25.7679 9.25 25.4669 9.25 25.237 9.3624C25.0347 9.46127 24.8702 9.61903 24.7672 9.81307C24.65 10.0337 24.65 10.3224 24.65 10.9V17.9125C24.65 18.4901 24.65 18.7788 24.7672 18.9994C24.8702 19.1935 25.0347 19.3512 25.237 19.4501C25.4669 19.5625 25.7679 19.5625 26.37 19.5625Z" stroke="#163970" stroke-width="2" stroke-linecap="round"/></symbol>
	<symbol id="check" xmlns="http://www.w3.org/2000/svg" width="30" height="31" viewBox="0 0 30 31"  fill="none"><path xmlns="http://www.w3.org/2000/svg" id="Icon" d="M24.6693 8.09995L11.3776 21.8499L5.33594 15.5999" stroke="white" stroke-width="1.06204" stroke-linecap="round" stroke-linejoin="round"/></symbol>
	<symbol id="favorite-pdp" xmlns="http://www.w3.org/2000/svg" width="22" height="21" viewBox="0 0 22 21"  fill="none"><path xmlns="http://www.w3.org/2000/svg" id="favorite-pdp" fill-rule="evenodd" clip-rule="evenodd" d="M10.9932 3.74017C8.9938 1.41015 5.65975 0.783384 3.1547 2.91698C0.649644 5.05058 0.296968 8.61786 2.2642 11.1413C3.89982 13.2393 8.84977 17.6643 10.4721 19.0965C10.6536 19.2567 10.7444 19.3368 10.8502 19.3683C10.9426 19.3958 11.0437 19.3958 11.1361 19.3683C11.2419 19.3368 11.3327 19.2567 11.5142 19.0965C13.1365 17.6643 18.0865 13.2393 19.7221 11.1413C21.6893 8.61786 21.3797 5.02814 18.8316 2.91698C16.2835 0.805827 12.9925 1.41015 10.9932 3.74017Z" stroke="#D3D3D3" stroke-width="2" stroke-linecap="round" stroke-linejoin="round"/></symbol>
	<symbol id="ArrowSlide" xmlns="http://www.w3.org/2000/svg" width="20" height="20" viewBox="0 0 20 20"  fill="none"><path xmlns="http://www.w3.org/2000/svg" id="Vector" d="M12.5762 3.39999L7.14284 8.83333C6.50117 9.47499 6.50117 10.525 7.14284 11.1667L12.5762 16.6" stroke="#A8A8A8" stroke-width="1.34615" stroke-miterlimit="10" stroke-linecap="round" stroke-linejoin="round"/></symbol>
	<symbol id="18" xmlns="http://www.w3.org/2000/svg" width="46" height="46" viewBox="0 0 46 46" fill="none">
		<path d="M12.4304 18.5159V15.9908H17.1224V30.2605H14.3189V18.5159H12.4304Z" fill="#3D5EE3"/>
		<path d="M22.9691 22.7048C21.6712 22.0263 21.0222 20.9758 21.0222 19.5534C21.0222 18.8487 21.1974 18.2093 21.5479 17.6351C21.9113 17.0479 22.45 16.5846 23.1638 16.2453C23.8907 15.893 24.7733 15.7168 25.8117 15.7168C26.85 15.7168 27.7261 15.893 28.44 16.2453C29.1669 16.5846 29.7055 17.0479 30.056 17.6351C30.4194 18.2093 30.6011 18.8487 30.6011 19.5534C30.6011 20.2711 30.4259 20.904 30.0754 21.4521C29.725 21.9871 29.2577 22.4047 28.6736 22.7048C29.3875 23.018 29.9456 23.4748 30.348 24.0751C30.7504 24.6753 30.9515 25.3865 30.9515 26.2087C30.9515 27.096 30.7244 27.8725 30.2701 28.538C29.8288 29.1905 29.2188 29.6929 28.44 30.0452C27.6612 30.3976 26.7851 30.5737 25.8117 30.5737C24.8382 30.5737 23.9621 30.3976 23.1833 30.0452C22.4175 29.6929 21.8075 29.1905 21.3532 28.538C20.9119 27.8725 20.6912 27.096 20.6912 26.2087C20.6912 25.3865 20.8924 24.6753 21.2948 24.0751C21.6972 23.4617 22.2553 23.005 22.9691 22.7048ZM27.9533 19.9449C27.9533 19.3054 27.7586 18.8095 27.3692 18.4572C26.9928 18.1049 26.4736 17.9287 25.8117 17.9287C25.1627 17.9287 24.6435 18.1049 24.2541 18.4572C23.8777 18.8095 23.6895 19.312 23.6895 19.9644C23.6895 20.5517 23.8842 21.0214 24.2736 21.3738C24.676 21.7261 25.1886 21.9023 25.8117 21.9023C26.4347 21.9023 26.9474 21.7261 27.3497 21.3738C27.7521 21.0084 27.9533 20.5321 27.9533 19.9449ZM25.8117 23.8989C25.0718 23.8989 24.4683 24.0881 24.001 24.4665C23.5467 24.845 23.3196 25.3865 23.3196 26.0912C23.3196 26.7437 23.5402 27.2787 23.9815 27.6963C24.4358 28.1008 25.0459 28.3031 25.8117 28.3031C26.5774 28.3031 27.181 28.0943 27.6223 27.6767C28.0636 27.2591 28.2843 26.7306 28.2843 26.0912C28.2843 25.3996 28.0571 24.8645 27.6028 24.4861C27.1485 24.0946 26.5515 23.8989 25.8117 23.8989Z" fill="#3D5EE3"/>
		<path d="M46 24.0439H42.7826V27.3683H40.5356V24.0439H37.3182V21.9533H40.5356V18.6289H42.7826V21.9533H46V24.0439Z" fill="#3D5EE3"/>
		<path fill-rule="evenodd" clip-rule="evenodd" d="M8.05027 11.2884C5.47976 14.5795 4.06439 18.6351 4.02514 22.8215C3.98599 27.0079 5.32521 31.0895 7.83371 34.429C10.3423 37.7683 13.8787 40.1774 17.8909 41.28C21.9031 42.3827 26.1651 42.1166 30.0113 40.5236C33.8574 38.9306 37.0712 36.1002 39.1507 32.4745C39.7064 31.5057 40.937 31.1738 41.8994 31.7331C42.8618 32.2924 43.1915 33.5312 42.6359 34.5C40.1118 38.9008 36.2109 42.3363 31.5426 44.2699C26.8742 46.2034 21.701 46.5264 16.831 45.188C11.9611 43.8496 7.66862 40.9255 4.6238 36.8723C1.57905 32.819 -0.0465131 27.8648 0.00101327 22.7834C0.0486478 17.702 1.76657 12.7794 4.88665 8.7846C8.0067 4.78983 12.3532 1.94755 17.2474 0.701794C22.1415 -0.543921 27.3076 -0.122978 31.939 1.89873C36.5705 3.92052 40.4063 7.42933 42.8476 11.8773C43.385 12.8564 43.0322 14.0887 42.0595 14.6297C41.0868 15.1707 39.8626 14.8155 39.3252 13.8363C37.3139 10.1718 34.1536 7.281 30.3379 5.61532C26.5222 3.94967 22.266 3.60288 18.2339 4.62918C14.2017 5.65552 10.6208 7.99718 8.05027 11.2884Z" fill="#3D5EE3"/>
	</symbol>
	<symbol id="share-2" xmlns="http://www.w3.org/2000/svg" width="20" height="20" viewBox="0 0 20 20" fill="none">
		<path d="M1.43475 10.5997C1.19373 10.3931 1.07322 10.2898 1.02907 10.1669C0.990311 10.059 0.990311 9.941 1.02907 9.83311C1.07322 9.7102 1.19373 9.6069 1.43475 9.40032L9.79782 2.23197C10.2127 1.87635 10.4202 1.69854 10.5958 1.69418C10.7484 1.6904 10.8942 1.75745 10.9907 1.87581C11.1017 2.01199 11.1017 2.28521 11.1017 2.83165V7.07232C13.2092 7.44103 15.1381 8.50895 16.5716 10.1124C18.1343 11.8606 18.9988 14.1229 19 16.4677V17.0719C17.964 15.8239 16.6705 14.8145 15.2081 14.113C13.9187 13.4944 12.5249 13.1281 11.1017 13.0315V17.1684C11.1017 17.7148 11.1017 17.988 10.9907 18.1242C10.8942 18.2425 10.7484 18.3096 10.5958 18.3058C10.4202 18.3015 10.2127 18.1237 9.79782 17.768L1.43475 10.5997Z" stroke="#A8A8A8" stroke-width="2" stroke-linecap="round" stroke-linejoin="round"/>
	</symbol>
	<symbol id="whatsapp" xmlns="http://www.w3.org/2000/svg" width="27" height="27" viewBox="0 0 27 27" fill="none">
		<path fill-rule="evenodd" clip-rule="evenodd" d="M23.0212 3.92107C20.4945 1.39207 17.1352 -0.00180469 13.5566 -0.00292969C6.1822 -0.00292969 0.180328 5.99782 0.176953 13.3756C0.175828 15.7336 0.792328 18.0353 1.96345 20.0648L0.0644531 26.9971L7.15645 25.1363C9.11058 26.2028 11.3111 26.7642 13.5498 26.7653H13.5555C20.9287 26.7653 26.9317 20.7634 26.9351 13.3857C26.9373 9.81157 25.5468 6.44895 23.0212 3.92107ZM13.5566 24.5052H13.5521C11.5563 24.5052 9.59995 23.9686 7.8922 22.9549L7.48608 22.7142L3.27745 23.8178L4.40133 19.7138L4.13695 19.2931C3.0232 17.5223 2.43595 15.4759 2.43708 13.3756C2.43933 7.24432 7.4287 2.25607 13.5622 2.25607C16.5322 2.25607 19.3245 3.41482 21.4237 5.51632C23.523 7.61895 24.6783 10.4123 24.6772 13.3834C24.6738 19.5169 19.6856 24.5052 13.5566 24.5052ZM19.6563 16.1768C19.3222 16.0092 17.6786 15.2003 17.3715 15.0889C17.0655 14.9776 16.8427 14.9213 16.6188 15.2554C16.395 15.5896 15.756 16.3433 15.5602 16.5672C15.3656 16.7899 15.1698 16.8181 14.8357 16.6504C14.5016 16.4828 13.4238 16.1307 12.147 14.9911C11.1536 14.1046 10.482 13.0099 10.2873 12.6747C10.0927 12.3394 10.2671 12.1594 10.4336 11.9929C10.5843 11.8433 10.7677 11.6026 10.9353 11.4068C11.1041 11.2133 11.1592 11.0738 11.2717 10.8499C11.3831 10.6272 11.328 10.4314 11.2436 10.2638C11.1592 10.0973 10.491 8.45145 10.2131 7.78207C9.94195 7.12957 9.66633 7.21845 9.46045 7.20832C9.26583 7.19819 9.04308 7.19707 8.8192 7.19707C8.59645 7.19707 8.2342 7.28032 7.9282 7.61557C7.6222 7.95082 6.7582 8.7597 6.7582 10.4044C6.7582 12.0503 7.95633 13.6399 8.12283 13.8627C8.28933 14.0854 10.4797 17.4627 13.8333 18.9106C14.631 19.2548 15.2542 19.4607 15.7391 19.6148C16.5401 19.8691 17.2691 19.8331 17.8451 19.7476C18.4875 19.6519 19.8228 18.9387 20.1018 18.1579C20.3808 17.3772 20.3808 16.7067 20.2965 16.5683C20.2132 16.4277 19.9905 16.3444 19.6563 16.1768Z" fill="#163970"/>
	</symbol>
	<symbol id="facebook" xmlns="http://www.w3.org/2000/svg" width="15" height="29" viewBox="0 0 15 29" fill="none">
		<path d="M14.0171 16.1864L14.7945 10.9777H9.93152V7.59901C9.93152 6.17368 10.6096 4.78348 12.7877 4.78348H15V0.349012C15 0.349012 12.9931 -0.00292969 11.0753 -0.00292969C7.06855 -0.00292969 4.45208 2.49231 4.45208 7.00775V10.9777H0V16.1864H4.45208V28.7789C5.34589 28.9232 6.26029 28.9971 7.1918 28.9971C8.1233 28.9971 9.03771 28.9232 9.93152 28.7789V16.1864H14.0171Z" fill="#163970"/>
	</symbol>
	<symbol id="copy-paste" xmlns="http://www.w3.org/2000/svg" width="27" height="27" viewBox="0 0 27 27" fill="none">
		<path d="M8.88284 18.1143C8.22359 17.4562 8.22359 16.3863 8.88284 15.7282C9.54209 15.0689 10.6097 15.0689 11.269 15.7282C12.7607 17.2199 15.364 17.2211 16.8557 15.7282L22.4683 10.1156C24.0085 8.57543 24.0085 6.06893 22.4683 4.5288C20.9282 2.98868 18.4217 2.98868 16.8816 4.5288C16.2223 5.18805 15.1547 5.18805 14.4955 4.5288C13.8362 3.87068 13.8362 2.8008 14.4955 2.14268C17.3507 -0.713697 21.9992 -0.713697 24.8545 2.14268C27.7108 4.99905 27.7108 9.6453 24.8545 12.5017L19.2418 18.1143C17.8131 19.5431 15.9377 20.2563 14.0623 20.2563C12.187 20.2563 10.3105 19.5419 8.88284 18.1143ZM7.32584 26.9939C9.20121 26.9939 11.0766 26.2796 12.5053 24.8519C13.1646 24.1938 13.1646 23.1239 12.5053 22.4658C11.8461 21.8066 10.7785 21.8066 10.1192 22.4658C8.57796 24.0071 6.07146 24.0059 4.53246 22.4658C2.99234 20.9257 2.99234 18.4192 4.53246 16.8791L10.1136 11.2979C11.6548 9.75668 14.1613 9.75668 15.7003 11.2979C16.3596 11.9572 17.4272 11.9572 18.0865 11.2979C18.7457 10.6398 18.7457 9.56993 18.0865 8.9118C15.2301 6.05543 10.5838 6.05543 7.72746 8.9118L2.14521 14.4929C-0.711164 17.3493 -0.711164 21.9956 2.14521 24.8519C3.57396 26.2807 5.45046 26.9939 7.32584 26.9939Z" fill="#163970"/>
	</symbol>
	<symbol id="mail" xmlns="http://www.w3.org/2000/svg" width="29" height="25" viewBox="0 0 29 25" fill="none">
		<path d="M22.9583 0H6.04167C4.43991 0.00180438 2.9043 0.601002 1.77168 1.66616C0.639066 2.73132 0.00191866 4.17546 0 5.68182L0 19.3182C0.00191866 20.8245 0.639066 22.2687 1.77168 23.3338C2.9043 24.399 4.43991 24.9982 6.04167 25H22.9583C24.5601 24.9982 26.0957 24.399 27.2283 23.3338C28.3609 22.2687 28.9981 20.8245 29 19.3182V5.68182C28.9981 4.17546 28.3609 2.73132 27.2283 1.66616C26.0957 0.601002 24.5601 0.00180438 22.9583 0ZM6.04167 2.27273H22.9583C23.6819 2.27407 24.3884 2.47899 24.9871 2.86114C25.5857 3.24329 26.0491 3.78517 26.3175 4.41705L17.0641 13.1205C16.3831 13.7583 15.4611 14.1164 14.5 14.1164C13.5389 14.1164 12.6169 13.7583 11.9359 13.1205L2.6825 4.41705C2.95093 3.78517 3.41428 3.24329 4.01293 2.86114C4.61158 2.47899 5.31813 2.27407 6.04167 2.27273ZM22.9583 22.7273H6.04167C5.08026 22.7273 4.15822 22.3681 3.4784 21.7288C2.79859 21.0894 2.41667 20.2223 2.41667 19.3182V7.38636L10.2273 14.7273C11.3615 15.7912 12.8981 16.3887 14.5 16.3887C16.1019 16.3887 17.6385 15.7912 18.7727 14.7273L26.5833 7.38636V19.3182C26.5833 20.2223 26.2014 21.0894 25.5216 21.7288C24.8418 22.3681 23.9197 22.7273 22.9583 22.7273Z" fill="#163970"/>
	</symbol>
	<symbol id="x-twitter" xmlns="http://www.w3.org/2000/svg" width="27" height="25" viewBox="0 0 27 25" fill="none">
		<path d="M21.2641 -0.00292969H25.4042L16.3592 10.5868L27 24.9971H18.6683L12.1427 16.2573L4.67586 24.9971H0.533142L10.2078 13.6701L0 -0.00292969H8.54313L14.4418 7.98555L21.2641 -0.00292969ZM19.811 22.4586H22.1051L7.29664 2.40218H4.83478L19.811 22.4586Z" fill="#163970"/>
	</symbol>
</svg>
